<svg width="1448" height="84" viewBox="0 0 1448 84" fill="none" xmlns="http://www.w3.org/2000/svg">
<path d="M216.446 81.8735C171.143 82.7132 88.4166 81.0834 0.000732422 69.2777V0.000976562H1448V69.2777C1448 69.2777 1322 83.6986 1246.5 79.5C1171 75.3014 1085.58 66.7586 1035.25 70.9572C984.909 75.1558 867.458 87.3317 786.921 83.1331C706.383 78.9345 609.067 69.2777 476.515 69.2777C343.964 69.2777 261.748 81.0338 216.446 81.8735Z" fill="#E75D23"/>
<path d="M131.636 50.9995C23.1114 61.3951 0 0 0 0H1448C1448 0 1423 55.3652 1367 48.8446C1229 22.762 1144 35.8033 1092.5 39.3144C1041 42.8255 967.677 22.0007 869.704 33.0005C771.731 44.0004 631.553 58.4985 557.193 50.9995C482.834 43.5004 473.79 46.0004 321.554 29.0006C232.565 19.0633 225.59 41.9996 131.636 50.9995Z" fill="#203722"/>
</svg>
