<svg width="1441" height="322" viewBox="0 0 1441 322" fill="none" xmlns="http://www.w3.org/2000/svg">
<path d="M1441 50.9999C1441 163.666 1117.67 255 718.824 255C319.978 255 0 163.666 0 50.9999C0.500244 17.9367 33 6.99989 83.0004 5.93666C133.001 4.87343 143.51 7.3529 188.5 6.99992C314.495 6.01138 482.841 7.6286 689 6.43675C776.935 6.43675 869.06 9.44782 948.5 6.43666C1029.5 7.43666 1092.29 8.47255 1151.6 6.99989C1223.69 5.2102 1295 6.99989 1345.1 6.99989C1441 6.99989 1441 12.0988 1441 50.9999Z" fill="#E75D23"/>
<path d="M0 0H1441V52H0V21.5V0Z" fill="#E75D23"/>
</svg>
